With: osh Lucas, Rachael Taylor en Keisha Castle-Hughes

Dit familiedrama toont de impact die een zwerfhond heeft op het leven van een groep ruige mijnwerkers. Red Dog brengt een gemeenschap samen tijdens een periode wanneer een klein afgelegen stadje uitgroeit tot een grote mijnbouwstad. Red Dog komt voor het eerst in de stad wanneer hij slim genoeg is om mee te liften door de Australische achterlanden. Op zijn beurt wekt Red Dog moed op bij sommige mannen, redt het leven van anderen, en biedt een troostend oor wanneer het het meest nodig is. Hoewel de mijnwerkers hem liefhebben proberen de beheerders van het woonwagenpark waar ze allemaal wonen Red Dog te verjagen. Uiteindelijk zal hij het op moeten nemen tegen zijn aartsvijand, Red Cat.

Based on the legendary true story of the Red Dog who united a disparate local community while roaming the Australian outback in search of his long lost master. 

------------------------ Dutch Friends ------------------------
---------------------------------------------------------------
- Bezoek ook eens mijn vrienden op:  http://www.Film-Test.nl --
----- voor mijn Nederlandse Sync. ondertitels ---- en meer ----
------- http://www.Film-Test.nl ---- voor Films en meer -------
---------------------------------------------------------------

General:

Complete name                    : Red Dog\Red Dog.avi
Format                           : AVI
Format/Info                      : Audio Video Interleave
File size                        : 1.53 GiB
Duration                         : 1h 32mn
Overall bit rate                 : 2 372 Kbps

Video:

Format                           : MPEG-4 Visual
Format profile                   : Simple@L3
Format settings, BVOP            : No
Format settings, QPel            : No
Format settings, GMC             : No warppoints
Format settings, Matrix          : Default (H.263)
Codec ID                         : XVID
Codec ID/Hint                    : XviD
Duration                         : 1h 32mn
Bit rate                         : 1 913 Kbps
Width                            : 720 pixels
Height                           : 304 pixels
Display aspect ratio             : 2.35:1
Frame rate                       : 25.000 fps
Color space                      : YUV
Chroma subsampling               : 4:2:0
Bit depth                        : 8 bits
Scan type                        : Progressive
Compression mode                 : Lossy
Bits/(Pixel*Frame)               : 0.350
Stream size                      : 1.23 GiB (81%)
Writing library                  : XviD 1.1.2 (UTC 2006-11-01)

Audio:

Format                           : AC-3
Format/Info                      : Audio Coding 3
Mode extension                   : CM (complete main)
Codec ID                         : 2000
Duration                         : 1h 32mn
Bit rate mode                    : Constant
Bit rate                         : 448 Kbps
Channel(s)                       : 6 channels
Channel positions                : Front: L C R, Side: L R, LFE
Sampling rate                    : 48.0 KHz
Bit depth                        : 16 bits
Compression mode                 : Lossy
Stream size                      : 296 MiB (19%)
Alignment                        : Aligned on interleaves
Interleave, duration             : 32 ms (0.80 video frame)
Interleave, preload duration     : 32 ms

